<svg width="449" height="440" viewBox="0 0 449 440" fill="none" xmlns="http://www.w3.org/2000/svg">
<path d="M280.49 7.02973C281.9 1.87113 287.233 -1.18826 292.326 0.442066C328.288 11.9535 360.829 32.3501 386.9 59.8085C415.196 89.6109 434.79 126.594 443.554 166.744C452.319 206.895 449.92 248.679 436.617 287.562C423.315 326.446 399.617 360.943 368.096 387.311C336.574 413.679 298.433 430.91 257.811 437.135C217.19 443.36 175.639 438.34 137.668 422.621C99.6975 406.902 66.7571 381.083 42.4217 347.967C20.0004 317.456 5.67274 281.824 0.694891 244.394C-0.0101009 239.093 3.9432 234.384 9.2697 233.908C14.5962 233.432 19.2768 237.369 20.0033 242.667C24.6525 276.573 37.7006 308.839 58.0271 336.5C80.2679 366.765 110.373 390.361 145.076 404.728C179.778 419.094 217.753 423.681 254.878 417.993C292.003 412.304 326.862 396.555 355.67 372.457C384.479 348.358 406.137 316.83 418.294 281.294C430.452 245.757 432.644 207.569 424.634 170.875C416.624 134.18 398.717 100.38 372.856 73.1428C349.221 48.2498 319.767 29.7073 287.215 19.1417C282.129 17.4908 279.081 12.1883 280.49 7.02973Z" fill="#00D674"/>
</svg>
