<svg width="278" height="398" viewBox="0 0 278 398" fill="none" xmlns="http://www.w3.org/2000/svg">
<path d="M100.704 8.70094C101.386 3.22033 106.388 -0.695336 111.827 0.259544C136.744 4.63352 160.637 13.7011 182.222 27.0111C206.647 42.0728 227.546 62.2145 243.498 86.0682C259.45 109.922 270.082 136.929 274.672 165.256C279.262 193.582 277.703 222.565 270.1 250.236C262.498 277.907 249.029 303.617 230.61 325.622C212.191 347.626 189.252 365.41 163.351 377.764C137.451 390.118 109.195 396.754 80.5024 397.221C55.1472 397.634 29.9758 393.22 6.32194 384.249C1.15803 382.29 -1.14085 376.369 1.07336 371.309C3.28756 366.25 9.17573 363.971 14.3504 365.901C35.3664 373.738 57.6913 377.59 80.1769 377.224C106 376.803 131.43 370.831 154.741 359.712C178.051 348.593 198.696 332.588 215.274 312.784C231.851 292.98 243.973 269.841 250.815 244.937C257.658 220.033 259.061 193.949 254.93 168.455C250.799 142.961 241.23 118.654 226.873 97.1861C212.516 75.7178 193.707 57.5903 171.724 44.0347C152.582 32.2311 131.424 24.1347 109.354 20.1339C103.919 19.1489 100.022 14.1816 100.704 8.70094Z" fill="#7255EE"/>
</svg>
